<?xml version="1.0" encoding="utf-8"?>
<!-- Generator: Adobe Illustrator 19.1.0, SVG Export Plug-In . SVG Version: 6.00 Build 0)  -->
<svg version="1.1" id="Capa_1" xmlns="http://www.w3.org/2000/svg" xmlns:xlink="http://www.w3.org/1999/xlink" x="0px" y="0px"
	 viewBox="0 0 1280 900" style="enable-background:new 0 0 1280 900;" xml:space="preserve">
<style type="text/css">
	.st0{clip-path:url(#SVGID_2_);}
	.st1{clip-path:url(#SVGID_4_);}
</style>
<g>
	<defs>
		<path id="SVGID_1_" d="M1229.1,51.1c-0.3,0.3-0.7,0.4-1.1,0.4s-0.8-0.1-1.1-0.4l-4.9-4.9l-4.9,4.9c-0.3,0.3-0.7,0.4-1.1,0.4
			s-0.8-0.1-1.1-0.4c-0.6-0.6-0.6-1.5,0-2.1l4.9-4.9l-4.9-4.9c-0.6-0.6-0.6-1.5,0-2.1c0.6-0.6,1.5-0.6,2.1,0l4.9,4.9l4.9-4.9
			c0.6-0.6,1.5-0.6,2.1,0c0.6,0.6,0.6,1.5,0,2.1l-4.9,4.9l4.9,4.9C1229.6,49.5,1229.6,50.5,1229.1,51.1z M1222,29
			c-8.3,0-15,6.7-15,15s6.7,15,15,15s15-6.7,15-15S1230.3,29,1222,29z M1222,62c-9.9,0-18-8.1-18-18s8.1-18,18-18s18,8.1,18,18
			S1231.9,62,1222,62z"/>
	</defs>
	<use xlink:href="#SVGID_1_"  style="overflow:visible;fill-rule:evenodd;clip-rule:evenodd;"/>
	<clipPath id="SVGID_2_">
		<use xlink:href="#SVGID_1_"  style="overflow:visible;"/>
	</clipPath>
	<g class="st0">
		<defs>
			<rect id="SVGID_3_" y="-11" width="1280" height="850"/>
		</defs>
		<use xlink:href="#SVGID_3_"  style="overflow:visible;"/>
		<clipPath id="SVGID_4_">
			<use xlink:href="#SVGID_3_"  style="overflow:visible;"/>
		</clipPath>
		<rect x="1199" y="21" class="st1" width="46" height="46"/>
	</g>
</g>
</svg>
