<?xml version="1.0" encoding="UTF-8" standalone="no"?>
<!-- Generator: Adobe Illustrator 19.1.0, SVG Export Plug-In . SVG Version: 6.00 Build 0)  -->

<svg
   xmlns:dc="http://purl.org/dc/elements/1.1/"
   xmlns:cc="http://creativecommons.org/ns#"
   xmlns:rdf="http://www.w3.org/1999/02/22-rdf-syntax-ns#"
   xmlns:svg="http://www.w3.org/2000/svg"
   xmlns="http://www.w3.org/2000/svg"
   xmlns:xlink="http://www.w3.org/1999/xlink"
   xmlns:sodipodi="http://sodipodi.sourceforge.net/DTD/sodipodi-0.dtd"
   xmlns:inkscape="http://www.inkscape.org/namespaces/inkscape"
   version="1.1"
   id="Capa_1"
   x="0px"
   y="0px"
   viewBox="234 -384 9 20"
   xml:space="preserve"
   inkscape:version="0.91 r13725"
   sodipodi:docname="facebookicon_white.svg"
   width="9"
   height="20"><metadata
     id="metadata28"><rdf:RDF><cc:Work
         rdf:about=""><dc:format>image/svg+xml</dc:format><dc:type
           rdf:resource="http://purl.org/dc/dcmitype/StillImage" /><dc:title></dc:title></cc:Work></rdf:RDF></metadata><defs
     id="defs26" /><sodipodi:namedview
     pagecolor="#ffffff"
     bordercolor="#666666"
     borderopacity="1"
     objecttolerance="10"
     gridtolerance="10"
     guidetolerance="10"
     inkscape:pageopacity="0"
     inkscape:pageshadow="2"
     inkscape:window-width="640"
     inkscape:window-height="480"
     id="namedview24"
     showgrid="false"
     fit-margin-top="0"
     fit-margin-left="0"
     fit-margin-right="0"
     fit-margin-bottom="0"
     inkscape:zoom="0.2421875"
     inkscape:cx="-558.4"
     inkscape:cy="-338"
     inkscape:window-x="0"
     inkscape:window-y="0"
     inkscape:window-maximized="0"
     inkscape:current-layer="Capa_1" /><style
     type="text/css"
     id="style3">
	.st0{fill:#F3F3F3;}
	.st1{clip-path:url(#SVGID_3_);}
</style><g
     id="g5"
     transform="translate(-1198.4,-92)"><g
       id="g7"><g
         id="g9"><path
           id="SVGID_1_"
           class="st0"
           d="m 1439.2,-288.9 1.9,0 0,-3.1 -2.3,0 0,0 c -3.7,0.1 -4.4,2.2 -4.5,4.4 l 0,0 0,2.5 -1.9,0 0,3.1 1.9,0 0,10 3.7,0 0,-10 2.8,0 0.6,-3.1 -3.4,0 0,-2.3 c 0,-0.7 0.5,-1.5 1.2,-1.5"
           inkscape:connector-curvature="0"
           style="fill:#f3f3f3" /></g><g
         id="g12"><defs
           id="defs14"><path
             id="SVGID_2_"
             d="m 1439.2,-288.9 1.9,0 0,-3.1 -2.3,0 0,0 c -3.7,0.1 -4.4,2.2 -4.5,4.4 l 0,0 0,2.5 -1.9,0 0,3.1 1.9,0 0,10 3.7,0 0,-10 2.8,0 0.6,-3.1 -3.4,0 0,-2.3 c 0,-0.7 0.5,-1.5 1.2,-1.5"
             inkscape:connector-curvature="0" /></defs><use
           xlink:href="#SVGID_2_"
           style="overflow:visible;fill:#f3f3f3"
           id="use17"
           x="0"
           y="0"
           width="100%"
           height="100%" /><clipPath
           id="SVGID_3_"><use
             xlink:href="#SVGID_2_"
             style="overflow:visible"
             id="use20"
             x="0"
             y="0"
             width="100%"
             height="100%" /></clipPath><g
           class="st1"
           id="g22"
           clip-path="url(#SVGID_3_)" /></g></g></g></svg>