<?xml version="1.0" encoding="utf-8"?>
<!-- Generator: Adobe Illustrator 19.1.0, SVG Export Plug-In . SVG Version: 6.00 Build 0)  -->
<svg version="1.1" id="Capa_1" xmlns="http://www.w3.org/2000/svg" xmlns:xlink="http://www.w3.org/1999/xlink" x="0px" y="0px"
	 viewBox="0 0 1280 900" style="enable-background:new 0 0 1280 900;" xml:space="preserve">
<style type="text/css">
	.st0{clip-path:url(#SVGID_2_);}
	.st1{clip-path:url(#SVGID_4_);}
</style>
<g>
	<defs>
		<path id="SVGID_1_" d="M1217,49.8c-1.1,0-2-0.9-2-2c0-1.1,0.9-2,2-2c1.1,0,2,0.9,2,2C1219,49,1218.1,49.8,1217,49.8z M1219,59.8
			h-4c-0.5,0-1-0.4-1-1c0-0.6,0.4-1,1-1h1v-4h-1c-0.5,0-1-0.4-1-1s0.4-1,1-1h2c0.5,0,1,0.4,1,1v5h1c0.5,0,1,0.4,1,1
			C1220,59.4,1219.5,59.8,1219,59.8z M1224,45.8c-1.9-1.9-4.4-2.9-7-2.9s-5.2,1-7,2.9c-3.9,3.9-3.9,10.2,0,14.1
			c1.9,1.9,4.4,2.9,7,2.9s5.2-1,7-2.9c1.9-1.9,2.9-4.4,2.9-7.1S1225.9,47.7,1224,45.8z M1225.4,61.3c-2.3,2.3-5.2,3.5-8.4,3.5
			s-6.2-1.2-8.4-3.5c-4.7-4.7-4.7-12.3,0-17c2.3-2.3,5.2-3.5,8.4-3.5s6.2,1.2,8.4,3.5c2.3,2.3,3.5,5.3,3.5,8.5
			C1228.9,56.1,1227.7,59.1,1225.4,61.3z"/>
	</defs>
	<use xlink:href="#SVGID_1_"  style="overflow:visible;fill-rule:evenodd;clip-rule:evenodd;"/>
	<clipPath id="SVGID_2_">
		<use xlink:href="#SVGID_1_"  style="overflow:visible;"/>
	</clipPath>
	<g class="st0">
		<defs>
			<rect id="SVGID_3_" x="-9.9" y="-604.2" width="1280" height="850"/>
		</defs>
		<use xlink:href="#SVGID_3_"  style="overflow:visible;"/>
		<clipPath id="SVGID_4_">
			<use xlink:href="#SVGID_3_"  style="overflow:visible;"/>
		</clipPath>
		<rect x="1200.1" y="35.8" class="st1" width="33.8" height="34"/>
	</g>
</g>
</svg>
