<?xml version="1.0" encoding="utf-8"?>
<!-- Generator: Adobe Illustrator 19.1.0, SVG Export Plug-In . SVG Version: 6.00 Build 0)  -->
<svg version="1.1" id="Capa_1" xmlns="http://www.w3.org/2000/svg" xmlns:xlink="http://www.w3.org/1999/xlink" x="0px" y="0px"
	 viewBox="-471 269 16 24" style="enable-background:new -471 269 16 24;" xml:space="preserve">
<style type="text/css">
	.st0{fill:#01BFB8;}
</style>
<path class="st0" d="M-456,293h-5c-0.6,0-1-0.4-1-1v-22c0-0.6,0.4-1,1-1h5c0.6,0,1,0.4,1,1v22C-455,292.6-455.4,293-456,293z
	 M-457,271h-3v20h3V271z M-465,293h-5c-0.6,0-1-0.4-1-1v-22c0-0.6,0.4-1,1-1h5c0.6,0,1,0.4,1,1v22C-464,292.6-464.4,293-465,293z
	 M-466,271h-3v20h3V271z"/>
</svg>
