<?xml version="1.0" encoding="utf-8"?>
<!-- Generator: Adobe Illustrator 19.1.0, SVG Export Plug-In . SVG Version: 6.00 Build 0)  -->
<svg version="1.1" id="Capa_1" xmlns="http://www.w3.org/2000/svg" xmlns:xlink="http://www.w3.org/1999/xlink" x="0px" y="0px"
	 viewBox="0 0 1280 900" style="enable-background:new 0 0 1280 900;" xml:space="preserve">
<style type="text/css">
	.st0{clip-path:url(#SVGID_2_);}
	.st1{clip-path:url(#SVGID_4_);}
</style>
<g>
	<defs>
		<path id="SVGID_1_" d="M1184.1,54.8V68l11.9-6.4L1184.1,54.8z M1183.8,69.5c-0.6,0-1-0.5-1-1.1V54.3c0-0.6,0.4-1.1,1-1.1
			c0.2,0,0.4,0.1,0.6,0.2l12.7,7.3c0.4,0.2,0.6,0.6,0.6,1c0,0.4-0.2,0.7-0.6,0.9l-12.7,6.8C1184.2,69.5,1184,69.5,1183.8,69.5z"/>
	</defs>
	<use xlink:href="#SVGID_1_"  style="overflow:visible;fill-rule:evenodd;clip-rule:evenodd;"/>
	<clipPath id="SVGID_2_">
		<use xlink:href="#SVGID_1_"  style="overflow:visible;"/>
	</clipPath>
	<g class="st0">
		<defs>
			<rect id="SVGID_3_" x="500.8" y="-639.8" width="1280" height="850"/>
		</defs>
		<use xlink:href="#SVGID_3_"  style="overflow:visible;"/>
		<clipPath id="SVGID_4_">
			<use xlink:href="#SVGID_3_"  style="overflow:visible;"/>
		</clipPath>
		<rect x="1177.8" y="48.2" class="st1" width="25" height="26.4"/>
	</g>
</g>
</svg>
