<?xml version="1.0" encoding="UTF-8" standalone="no"?>
<!-- Generator: Adobe Illustrator 19.1.0, SVG Export Plug-In . SVG Version: 6.00 Build 0)  -->

<svg
   xmlns:dc="http://purl.org/dc/elements/1.1/"
   xmlns:cc="http://creativecommons.org/ns#"
   xmlns:rdf="http://www.w3.org/1999/02/22-rdf-syntax-ns#"
   xmlns:svg="http://www.w3.org/2000/svg"
   xmlns="http://www.w3.org/2000/svg"
   xmlns:xlink="http://www.w3.org/1999/xlink"
   xmlns:sodipodi="http://sodipodi.sourceforge.net/DTD/sodipodi-0.dtd"
   xmlns:inkscape="http://www.inkscape.org/namespaces/inkscape"
   version="1.1"
   id="Capa_1"
   x="0px"
   y="0px"
   viewBox="0 0 20 16.1"
   xml:space="preserve"
   inkscape:version="0.91 r13725"
   sodipodi:docname="twittericon.svg"
   width="20"
   height="16.1"><metadata
     id="metadata27"><rdf:RDF><cc:Work
         rdf:about=""><dc:format>image/svg+xml</dc:format><dc:type
           rdf:resource="http://purl.org/dc/dcmitype/StillImage" /><dc:title></dc:title></cc:Work></rdf:RDF></metadata><defs
     id="defs25" /><sodipodi:namedview
     pagecolor="#ffffff"
     bordercolor="#666666"
     borderopacity="1"
     objecttolerance="10"
     gridtolerance="10"
     guidetolerance="10"
     inkscape:pageopacity="0"
     inkscape:pageshadow="2"
     inkscape:window-width="640"
     inkscape:window-height="480"
     id="namedview23"
     showgrid="false"
     fit-margin-top="0"
     fit-margin-left="0"
     fit-margin-right="0"
     fit-margin-bottom="0"
     inkscape:zoom="0.2421875"
     inkscape:cx="-552.3"
     inkscape:cy="-380.5"
     inkscape:window-x="24"
     inkscape:window-y="43"
     inkscape:window-maximized="0"
     inkscape:current-layer="Capa_1" /><style
     type="text/css"
     id="style3">
	.st0{clip-path:url(#SVGID_2_);}
	.st1{clip-path:url(#SVGID_4_);fill:#5CA1F8;}
</style><g
     id="g5"
     transform="translate(-1192.3,-53.4)"><defs
       id="defs7"><path
         id="SVGID_1_"
         d="m 1212.3,55.4 c -0.3,0.2 -1.3,0.6 -2.3,0.6 0.6,-0.3 1.5,-1.4 1.7,-2.2 -0.6,0.4 -1.9,0.9 -2.6,0.9 l 0,0 c -0.8,-0.8 -1.8,-1.3 -3,-1.3 -2.3,0 -4.1,1.8 -4.1,4.1 0,0.3 0,0.6 0.1,0.9 l 0,0 c -3.1,-0.1 -6.5,-1.6 -8.5,-4.3 -1.3,2.2 -0.2,4.6 1.3,5.5 -0.5,0 -1.4,-0.1 -1.8,-0.5 0,1.4 0.7,3.3 3.2,4 -0.5,0.3 -1.3,0.2 -1.7,0.1 0.1,1.2 1.8,2.8 3.7,2.8 -0.7,0.8 -3.2,2.2 -6,1.7 1.9,1.2 4.1,1.8 6.5,1.8 6.7,0 11.8,-5.4 11.5,-12 0,0 0,0 0,0 0,0 0,0 0,-0.1 0,0 0,0 0,-0.1 0.6,-0.2 1.4,-1 2,-1.9"
         inkscape:connector-curvature="0" /></defs><clipPath
       id="SVGID_2_"><use
         xlink:href="#SVGID_1_"
         style="overflow:visible"
         id="use11"
         x="0"
         y="0"
         width="100%"
         height="100%" /></clipPath><g
       class="st0"
       id="g13"
       clip-path="url(#SVGID_2_)"><defs
         id="defs15"><rect
           id="SVGID_3_"
           x="-47.700001"
           y="31.4"
           width="1280"
           height="850" /></defs><clipPath
         id="SVGID_4_"><use
           xlink:href="#SVGID_3_"
           style="overflow:visible"
           id="use19"
           x="0"
           y="0"
           width="100%"
           height="100%" /></clipPath><rect
         x="1187.3"
         y="48.400002"
         class="st1"
         width="30"
         height="26.200001"
         id="rect21"
         clip-path="url(#SVGID_4_)"
         style="fill:#5ca1f8" /></g></g></svg>