<?xml version="1.0" encoding="UTF-8" standalone="no"?>
<svg width="115px" height="28px" viewBox="0 0 115 28" version="1.1" xmlns="http://www.w3.org/2000/svg" xmlns:xlink="http://www.w3.org/1999/xlink" xmlns:sketch="http://www.bohemiancoding.com/sketch/ns">
    <!-- Generator: Sketch 3.3 (11970) - http://www.bohemiancoding.com/sketch -->
    <title>vizzuality. copy</title>
    <desc>Created with Sketch.</desc>
    <defs></defs>
    <g id="dark" stroke="none" stroke-width="1" fill="none" fill-rule="evenodd" sketch:type="MSPage">
        <g id="03a-intro-loading" sketch:type="MSArtboardGroup" transform="translate(-685.000000, -673.000000)" fill="#64D1B8">
            <path d="M699.311996,679.563169 L695.380129,679.563169 L692.171725,690.383667 L688.900412,679.563169 L685,679.563169 L690.095699,695.290637 L694.121931,695.290637 L699.311996,679.563169 Z M703.406893,677.109684 L703.406893,673.303637 L699.663756,673.303637 L699.663756,677.109684 L703.406893,677.109684 Z M703.406893,695.290637 L703.406893,679.563169 L699.663756,679.563169 L699.663756,695.290637 L703.406893,695.290637 Z M717.881919,695.290637 L717.881919,691.956414 L709.577816,691.956414 L717.881919,682.488478 L717.881919,679.563169 L705.26849,679.563169 L705.26849,682.928847 L712.91204,682.928847 L704.419207,692.396783 L704.419207,695.290637 L717.881919,695.290637 Z M731.570572,695.290637 L731.570572,691.956414 L723.266469,691.956414 L731.570572,682.488478 L731.570572,679.563169 L718.957143,679.563169 L718.957143,682.928847 L726.600692,682.928847 L718.10786,692.396783 L718.10786,695.290637 L731.570572,695.290637 Z M747.083611,695.290637 L747.083611,679.563169 L743.309019,679.563169 L743.309019,686.57762 C743.309019,687.772907 743.277564,689.251289 742.711375,690.352212 C742.428281,690.918401 741.484633,692.113689 739.660247,692.113689 C736.955122,692.113689 736.577663,690.132028 736.577663,688.622191 L736.577663,679.563169 L732.771616,679.563169 L732.771616,689.440019 C732.771616,690.886946 732.834526,692.333873 733.683809,693.59207 C734.312908,694.535719 735.60256,695.668096 738.21332,695.668096 C740.949899,695.668096 742.522646,694.409899 743.309019,693.686435 L743.309019,695.290637 L747.083611,695.290637 Z M762.84829,695.290637 C762.219191,694.284079 762.156281,693.938075 762.156281,692.742787 L762.156281,683.557946 C762.156281,680.789912 760.17462,679.091345 755.550745,679.091345 C748.945209,679.091345 748.725024,683.117577 748.662114,684.15559 L752.499616,684.375774 C752.499616,683.557946 752.814166,682.016654 755.676565,682.016654 C758.035685,682.016654 758.381689,683.180487 758.381689,684.375774 C757.375131,684.721779 755.896749,685.099238 753.537629,685.539607 C750.54941,686.074341 747.938651,687.426903 747.938651,690.855491 C747.938651,693.497706 750.077586,695.668096 753.663449,695.668096 C755.5822,695.668096 757.249311,694.881723 758.287324,694.063894 L758.381689,695.290637 L762.84829,695.290637 Z M758.381689,689.565839 C758.381689,691.5475 756.242753,692.428238 754.512732,692.428238 C752.625436,692.428238 751.933427,691.5475 751.933427,690.509487 C751.933427,688.93674 753.663449,688.590736 755.39347,688.339096 C756.840397,688.118912 757.75259,687.772907 758.381689,687.458358 L758.381689,689.565839 Z M768.012655,695.290637 L768.012655,673.083453 L764.175153,673.083453 L764.175153,695.290637 L768.012655,695.290637 Z M773.74321,677.109684 L773.74321,673.303637 L770.000072,673.303637 L770.000072,677.109684 L773.74321,677.109684 Z M773.74321,695.290637 L773.74321,679.563169 L770.000072,679.563169 L770.000072,695.290637 L773.74321,695.290637 Z M773.90624,682.236839 L776.20245,682.236839 L776.20245,691.61041 C776.20245,694.189714 777.271918,695.416457 780.637596,695.416457 C781.927249,695.416457 782.839442,695.227727 783.342721,695.164817 L783.342721,691.987869 C782.870897,692.113689 782.304708,692.176598 781.769974,692.176598 C781.612699,692.176598 780.794871,692.176598 780.354502,691.704774 C780.008498,691.327315 779.977043,690.635307 779.977043,690.037663 L779.977043,682.236839 L783.342721,682.236839 L783.342721,679.563169 L779.977043,679.563169 L779.977043,673.964191 L776.20245,673.964191 L776.20245,679.563169 L773.90624,679.563169 L773.90624,682.236839 Z M792.501863,679.563169 L789.545099,691.29586 L786.022146,679.563169 L781.96446,679.563169 L787.657803,695.605186 C787.531983,696.0141 787.185979,697.272298 785.109953,697.272298 C784.795404,697.272298 784.4494,697.272298 784.07194,697.209388 L784.07194,700.480701 C784.669584,700.606521 785.109953,700.700886 786.305241,700.700886 C787.531983,700.700886 788.538541,700.543611 789.513644,699.757238 C790.834751,698.68777 791.621125,695.888281 792.187314,693.90662 L796.37082,679.563169 L792.501863,679.563169 Z M799.930984,695.290637 L799.930984,690.981311 L795.778932,690.981311 L795.778932,695.290637 L799.930984,695.290637 Z" id="vizzuality.-copy" sketch:type="MSShapeGroup"></path>
        </g>
    </g>
</svg>